<?xml version="1.0" standalone="no"?><!DOCTYPE svg PUBLIC "-//W3C//DTD SVG 1.1//EN" "http://www.w3.org/Graphics/SVG/1.1/DTD/svg11.dtd"><svg t="1679043860062" class="icon" viewBox="0 0 1024 1024" version="1.1" xmlns="http://www.w3.org/2000/svg" p-id="1555" xmlns:xlink="http://www.w3.org/1999/xlink" width="200" height="200"><path d="M512 64C264.576 64 64 264.576 64 512s200.576 448 448 448 448-200.576 448-448S759.424 64 512 64z m0 806c-197.718 0-358-160.282-358-358s160.282-358 358-358 358 160.282 358 358-160.282 358-358 358z" fill="#29ABE2" p-id="1556"></path><path d="M358 396.5m-70 0a70 70 0 1 0 140 0 70 70 0 1 0-140 0Z" fill="#29ABE2" p-id="1557"></path><path d="M666 396.5m-70 0a70 70 0 1 0 140 0 70 70 0 1 0-140 0Z" fill="#29ABE2" p-id="1558"></path><path d="M658 538c0 80.634-65.366 146-146 146s-146-65.366-146-146" fill="#29ABE2" p-id="1559"></path></svg>