<?xml version="1.0" standalone="no"?><!DOCTYPE svg PUBLIC "-//W3C//DTD SVG 1.1//EN" "http://www.w3.org/Graphics/SVG/1.1/DTD/svg11.dtd"><svg t="1679752843702" class="icon" viewBox="0 0 1024 1024" version="1.1" xmlns="http://www.w3.org/2000/svg" p-id="5856" xmlns:xlink="http://www.w3.org/1999/xlink" width="200" height="200"><path d="M842.666667 721.066667h-661.333334c-53.333333 0-96-42.666667-96-96V597.333333c0-27.733333 10.666667-53.333333 32-72.533333l108.8-98.133333c17.066667-14.933333 40.533333-23.466667 64-23.466667 17.066667 0 32 14.933333 32 32s-14.933333 32-32 32c-8.533333 0-14.933333 2.133333-21.333333 8.533333l-108.8 98.133334c-6.4 4.266667-10.666667 12.8-10.666667 21.333333v27.733333c0 17.066667 14.933333 32 32 32h659.2c17.066667 0 32-14.933333 32-32v-27.733333c0-8.533333-4.266667-17.066667-10.666666-23.466667l-110.933334-98.133333c-6.4-4.266667-12.8-8.533333-21.333333-8.533333-17.066667 0-32-14.933333-32-32s14.933333-32 32-32c23.466667 0 46.933333 8.533333 64 23.466666l110.933333 98.133334c21.333333 19.2 32 44.8 32 72.533333v27.733333c2.133333 53.333333-40.533333 98.133333-93.866666 98.133334z" fill="#1296db" p-id="5857"></path><path d="M729.6 721.066667H294.4c-17.066667 0-32-14.933333-32-32V371.2c0-140.8 85.333333-268.8 217.6-320 19.2-6.4 42.666667-6.4 61.866667 0 132.266667 51.2 219.733333 179.2 217.6 320v315.733333c2.133333 19.2-12.8 34.133333-29.866667 34.133334z m-403.2-64h369.066667V371.2c0-115.2-70.4-219.733333-177.066667-262.4-6.4-2.133333-12.8-2.133333-19.2 0-106.666667 42.666667-174.933333 145.066667-174.933333 260.266667l2.133333 288zM512 977.066667c-17.066667 0-32-14.933333-32-32v-160c0-17.066667 14.933333-32 32-32s32 14.933333 32 32v160c0 19.2-12.8 32-32 32zM369.066667 934.4c-17.066667 0-32-14.933333-32-32v-74.666667c0-17.066667 14.933333-32 32-32s32 14.933333 32 32v74.666667c0 19.2-14.933333 32-32 32zM654.933333 934.4c-17.066667 0-32-14.933333-32-32v-74.666667c0-17.066667 14.933333-32 32-32s32 14.933333 32 32v74.666667c0 19.2-14.933333 32-32 32z" fill="#1296db" p-id="5858"></path><path d="M512 424.533333c-53.333333 0-96-42.666667-96-96s42.666667-96 96-96 96 42.666667 96 96-42.666667 96-96 96z m0-128c-17.066667 0-32 14.933333-32 32s14.933333 32 32 32 32-14.933333 32-32-12.8-32-32-32z" fill="#1296db" p-id="5859"></path></svg>